<svg id="graph" xmlns="http://www.w3.org/2000/svg" width="400" height="400">
    <!--square-->
    <rect x="60" y="60" width="140" height="140" fill="#82bdff"/>

    <!--triangle-->
    <polygon points="200,200 200,60 270,200" fill="#82bdff"/>

    <!--circle-->
    <path d="M 200 340 A 180 180 0 0 0 340 200 L 200 200 Z" fill="#82bdff"/>

    <!--text-->
    <text x="53" y="195">-R</text>
    <text x="118" y="195">-R/2</text>
    <text x="262" y="195">R/2</text>
    <text x="335" y="195">R</text>
    <text x="205" y="64">R</text>
    <text x="205" y="134">R/2</text>
    <text x="205" y="273">-R/2</text>
    <text x="205" y="343">-R</text>

    <!--lines-->
    <polygon points="15,200 60,200 60,197 60,203 60,200 130,200 130,197 130,203 130,200 270,200 270,197 270,203         270,200 340,200 340,197 340,203 340,200 385,200 378,197 385,200 378,203 385,200" stroke="black"/>
    <polygon points="200,385 200,340 197,340 203,340 200,340 200,270 197,270 203,270 200,270 200,130 197,130         203,130 200,130 200,60 197,60 203,60 200,60 200,15 197,22 200,15 203,22 200,15" stroke="black"/>

    <!--dot-->
    <circle id="dot" r="3" cx="200" cy="200" fill="red"/>
</svg>